<?xml version="1.0" encoding="UTF-8"?>
<svg version="1.1" viewBox="0 0 169.19243 164" xmlns="http://www.w3.org/2000/svg">
 <path d="m127.05 0.47152h22.541a2.8653 2.0784 0 0 1 2.8653 2.0784v21.972a2.8653 2.0784 0 0 1 -2.8653 2.0784h-22.541a2.8653 2.0784 0 0 1 -2.8653 -2.0784v-21.972a2.8653 2.0784 0 0 1 2.8653 -2.0784" fill="#333" stroke="#000" stroke-width=".94304"/>
 <path d="m124.05 1.5787h22.541a2.8653 2.0784 0 0 1 2.8653 2.0784v21.972a2.8653 2.0784 0 0 1 -2.8653 2.0784h-22.541a2.8653 2.0784 0 0 1 -2.8653 -2.0784v-21.972a2.8653 2.0784 0 0 1 2.8653 -2.0784" fill="#333" stroke="#000" stroke-width=".94304"/>
 <path d="m98.13 23.842h42.252a28.321 28.321 0 0 1 28.321 28.321v54.119a28.321 28.321 0 0 1 -28.321 28.321h-42.25a28.321 28.321 0 0 1 -28.32 -28.32v-54.117a28.321 28.321 0 0 1 28.32 -28.321" fill="#1a1a1a" stroke="#000" stroke-width=".97899"/>
 <path d="m44.307 43.784 37.157-15.476 69.293 0.49923 13.557 13.479v75.384l-8.034 12.98-39.166 18.971-72.813-105.84z" fill="#1a1a1a"/>
 <path d="m58.969 39.995h43.158a28.929 28.929 0 0 1 28.929 28.929v55.28a28.929 28.929 0 0 1 -28.929 28.929h-43.161a28.929 28.929 0 0 1 -28.928 -28.93v-55.276a28.929 28.929 0 0 1 28.928 -28.929" fill="#1a1a1a" stroke="#000"/>
 <path d="m113.94 96.564a39.396 39.396 0 0 1 -78.792 0 39.396 39.396 0 1 1 78.792 0z" fill="#333" stroke="#000"/>
 <path d="m102.68 102.67a39.396 39.396 0 0 1 -78.792 0 39.396 39.396 0 1 1 78.792 0z" fill="#333" stroke="#000"/>
 <path d="m96.421 111.89a45.742 49.602 0 0 1 -91.485 0 45.742 49.602 0 1 1 91.485 0z" fill="#1a1a1a" stroke="#000" stroke-width="1.0808"/>
 <path d="m92.025 113.86a45.742 49.602 0 0 1 -91.485 0 45.742 49.602 0 1 1 91.485 0z" fill="#333" stroke="#000" stroke-width="1.0808"/>
 <path d="m88.604 113.86a42.321 45.893 0 0 1 -84.643 0 42.321 45.893 0 1 1 84.643 0z" fill="#1a1a1a" stroke="#000"/>
 <path d="m75.568 113.86a29.286 30.714 0 1 1 -58.571 0 29.286 30.714 0 1 1 58.571 0z" stroke="#000"/>
 <path d="m37.677 92.736c-0.58595 0.79154-1.3024 1.467-1.8898 2.2576-0.70341 0.88426-1.4144 1.768-2.0106 2.7297-0.484 0.89076-1.0688 1.7217-1.5744 2.5989-0.48165 0.87526-0.94028 1.7622-1.2484 2.7142-0.20827 0.82055-0.68712 1.5226-0.99998 2.2986-0.38949 0.86369-0.61315 1.7688-0.73912 2.7037-0.10645 0.99529-0.10756 1.9977-0.11207 2.9974-9.6e-4 1.0111 3e-3 2.0222 4e-3 3.0333-6e-3 0.87709 0.1883 1.7557 0.40399 2.6035 0.22404 0.82006 0.62249 1.5831 1.0184 2.332 0.4168 0.77101 0.93689 1.464 1.2579 2.2836 0.31208 0.7262 0.74329 1.3869 1.2061 2.0253 0.24412 0.40828 0.55712 0.76516 0.8383 1.1474l-4.2236 2.4996c-0.27764-0.38192-0.57806-0.74624-0.8339-1.1436-0.51087-0.6623-0.96696-1.3593-1.2836-2.1372-0.30167-0.80415-0.82129-1.4826-1.2375-2.2293-0.40723-0.78314-0.80432-1.584-1.0533-2.4329-0.2595-0.87812-0.44395-1.8104-0.45255-2.7261-2e-3 -1.0118-5e-3 -2.0236-5e-3 -3.0355 2e-3 -1.0159 3.3e-4 -2.0335 0.0837-3.0467 0.1007-0.95614 0.26117-1.9072 0.66735-2.7879 0.2484-0.8194 0.74388-1.4907 1.0397-2.291 0.2685-0.98668 0.70219-1.9029 1.1936-2.7976 0.45357-0.9165 1.1163-1.7069 1.5813-2.6205 0.54332-1.003 1.2832-1.8996 2.0053-2.778 0.54271-0.79338 1.1724-1.478 1.7989-2.201l4.5651-1.9974z" fill="#e6e6e6"/>
 <path d="m97.467 29.783h20.905l15.331-5.923 12.687-19.25h-23.14l-8.3622 19.25-17.421 5.923z" fill="#333" stroke="#000" stroke-width="1.0056"/>
 <path d="m146.83 4.1763-0.16525 20.21" fill="#333" stroke="#000" stroke-width="1.0133"/>
 <path d="m114.96 23.679 18.571 0.08928" fill="#333" stroke="#000"/>
 <path d="m72.753 41.83h15.907a2.5885 4.8537 0 0 1 2.5885 4.8537v3.0236a2.5885 4.8537 0 0 1 -2.5885 4.8537h-15.907a2.5885 4.8537 0 0 1 -2.5885 -4.8537v-3.0236a2.5885 4.8537 0 0 1 2.5885 -4.8537" fill="#666" stroke="#000" stroke-width=".5"/>
 <path d="m72.367 53.462a0.17857 0.17857 0 1 1 -0.35714 0 0.17857 0.17857 0 1 1 0.35714 0z" fill="#666" stroke="#000" stroke-width=".5"/>
 <path d="m73.874 53.462a0.17857 0.17857 0 1 1 -0.35714 0 0.17857 0.17857 0 1 1 0.35714 0z" fill="#666" stroke="#000" stroke-width=".5"/>
 <path d="m75.386 53.462a0.17857 0.17857 0 1 1 -0.35714 0 0.17857 0.17857 0 1 1 0.35714 0z" fill="#666" stroke="#000" stroke-width=".5"/>
 <path d="m78.422 53.462a0.17857 0.17857 0 1 1 -0.35714 0 0.17857 0.17857 0 1 1 0.35714 0z" fill="#666" stroke="#000" stroke-width=".5"/>
 <path d="m76.903 53.462a0.17857 0.17857 0 1 1 -0.35714 0 0.17857 0.17857 0 1 1 0.35714 0z" fill="#666" stroke="#000" stroke-width=".5"/>
 <path d="m79.942 53.462a0.17857 0.17857 0 1 1 -0.35714 0 0.17857 0.17857 0 1 1 0.35714 0z" fill="#666" stroke="#000" stroke-width=".5"/>
 <path d="m81.457 53.462a0.17857 0.17857 0 1 1 -0.35714 0 0.17857 0.17857 0 1 1 0.35714 0z" fill="#666" stroke="#000" stroke-width=".5"/>
 <path d="m82.967 53.462a0.17857 0.17857 0 1 1 -0.35714 0 0.17857 0.17857 0 1 1 0.35714 0z" fill="#666" stroke="#000" stroke-width=".5"/>
 <path d="m85.954 53.462a0.17857 0.17857 0 1 1 -0.35714 0 0.17857 0.17857 0 1 1 0.35714 0z" fill="#666" stroke="#000" stroke-width=".5"/>
 <path d="m84.465 53.462a0.17857 0.17857 0 1 1 -0.35714 0 0.17857 0.17857 0 1 1 0.35714 0z" fill="#666" stroke="#000" stroke-width=".5"/>
 <path d="m88.924 53.462a0.17857 0.17857 0 1 1 -0.35714 0 0.17857 0.17857 0 1 1 0.35714 0z" fill="#666" stroke="#000" stroke-width=".5"/>
 <path d="m87.439 53.462a0.17857 0.17857 0 1 1 -0.35714 0 0.17857 0.17857 0 1 1 0.35714 0z" fill="#666" stroke="#000" stroke-width=".5"/>
 <path d="m72.367 43.046a0.17857 0.17857 0 1 1 -0.35714 0 0.17857 0.17857 0 1 1 0.35714 0z" fill="#666" stroke="#000" stroke-width=".5"/>
 <path d="m73.874 43.046a0.17857 0.17857 0 1 1 -0.35714 0 0.17857 0.17857 0 1 1 0.35714 0z" fill="#666" stroke="#000" stroke-width=".5"/>
 <path d="m75.386 43.046a0.17857 0.17857 0 1 1 -0.35714 0 0.17857 0.17857 0 1 1 0.35714 0z" fill="#666" stroke="#000" stroke-width=".5"/>
 <path d="m78.422 43.046a0.17857 0.17857 0 1 1 -0.35714 0 0.17857 0.17857 0 1 1 0.35714 0z" fill="#666" stroke="#000" stroke-width=".5"/>
 <path d="m76.903 43.046a0.17857 0.17857 0 1 1 -0.35714 0 0.17857 0.17857 0 1 1 0.35714 0z" fill="#666" stroke="#000" stroke-width=".5"/>
 <path d="m79.942 43.046a0.17857 0.17857 0 1 1 -0.35714 0 0.17857 0.17857 0 1 1 0.35714 0z" fill="#666" stroke="#000" stroke-width=".5"/>
 <path d="m81.457 43.046a0.17857 0.17857 0 1 1 -0.35714 0 0.17857 0.17857 0 1 1 0.35714 0z" fill="#666" stroke="#000" stroke-width=".5"/>
 <path d="m82.967 43.046a0.17857 0.17857 0 1 1 -0.35714 0 0.17857 0.17857 0 1 1 0.35714 0z" fill="#666" stroke="#000" stroke-width=".5"/>
 <path d="m85.954 43.046a0.17857 0.17857 0 1 1 -0.35714 0 0.17857 0.17857 0 1 1 0.35714 0z" fill="#666" stroke="#000" stroke-width=".5"/>
 <path d="m84.465 43.046a0.17857 0.17857 0 1 1 -0.35714 0 0.17857 0.17857 0 1 1 0.35714 0z" fill="#666" stroke="#000" stroke-width=".5"/>
 <path d="m88.924 43.046a0.17857 0.17857 0 1 1 -0.35714 0 0.17857 0.17857 0 1 1 0.35714 0z" fill="#666" stroke="#000" stroke-width=".5"/>
 <path d="m87.439 43.046a0.17857 0.17857 0 1 1 -0.35714 0 0.17857 0.17857 0 1 1 0.35714 0z" fill="#666" stroke="#000" stroke-width=".5"/>
 <path d="m72.367 44.834a0.17857 0.17857 0 1 1 -0.35714 0 0.17857 0.17857 0 1 1 0.35714 0z" fill="#666" stroke="#000" stroke-width=".5"/>
 <path d="m73.874 44.834a0.17857 0.17857 0 1 1 -0.35714 0 0.17857 0.17857 0 1 1 0.35714 0z" fill="#666" stroke="#000" stroke-width=".5"/>
 <path d="m75.386 44.834a0.17857 0.17857 0 1 1 -0.35714 0 0.17857 0.17857 0 1 1 0.35714 0z" fill="#666" stroke="#000" stroke-width=".5"/>
 <path d="m78.422 44.834a0.17857 0.17857 0 1 1 -0.35714 0 0.17857 0.17857 0 1 1 0.35714 0z" fill="#666" stroke="#000" stroke-width=".5"/>
 <path d="m76.903 44.834a0.17857 0.17857 0 1 1 -0.35714 0 0.17857 0.17857 0 1 1 0.35714 0z" fill="#666" stroke="#000" stroke-width=".5"/>
 <path d="m79.942 44.834a0.17857 0.17857 0 1 1 -0.35714 0 0.17857 0.17857 0 1 1 0.35714 0z" fill="#666" stroke="#000" stroke-width=".5"/>
 <path d="m81.457 44.834a0.17857 0.17857 0 1 1 -0.35714 0 0.17857 0.17857 0 1 1 0.35714 0z" fill="#666" stroke="#000" stroke-width=".5"/>
 <path d="m82.967 44.834a0.17857 0.17857 0 1 1 -0.35714 0 0.17857 0.17857 0 1 1 0.35714 0z" fill="#666" stroke="#000" stroke-width=".5"/>
 <path d="m85.954 44.834a0.17857 0.17857 0 1 1 -0.35714 0 0.17857 0.17857 0 1 1 0.35714 0z" fill="#666" stroke="#000" stroke-width=".5"/>
 <path d="m84.465 44.834a0.17857 0.17857 0 1 1 -0.35714 0 0.17857 0.17857 0 1 1 0.35714 0z" fill="#666" stroke="#000" stroke-width=".5"/>
 <path d="m88.924 44.834a0.17857 0.17857 0 1 1 -0.35714 0 0.17857 0.17857 0 1 1 0.35714 0z" fill="#666" stroke="#000" stroke-width=".5"/>
 <path d="m87.439 44.834a0.17857 0.17857 0 1 1 -0.35714 0 0.17857 0.17857 0 1 1 0.35714 0z" fill="#666" stroke="#000" stroke-width=".5"/>
 <path d="m72.367 46.602a0.17857 0.17857 0 1 1 -0.35714 0 0.17857 0.17857 0 1 1 0.35714 0z" fill="#666" stroke="#000" stroke-width=".5"/>
 <path d="m73.874 46.602a0.17857 0.17857 0 1 1 -0.35714 0 0.17857 0.17857 0 1 1 0.35714 0z" fill="#666" stroke="#000" stroke-width=".5"/>
 <path d="m75.386 46.602a0.17857 0.17857 0 1 1 -0.35714 0 0.17857 0.17857 0 1 1 0.35714 0z" fill="#666" stroke="#000" stroke-width=".5"/>
 <path d="m78.422 46.602a0.17857 0.17857 0 1 1 -0.35714 0 0.17857 0.17857 0 1 1 0.35714 0z" fill="#666" stroke="#000" stroke-width=".5"/>
 <path d="m76.903 46.602a0.17857 0.17857 0 1 1 -0.35714 0 0.17857 0.17857 0 1 1 0.35714 0z" fill="#666" stroke="#000" stroke-width=".5"/>
 <path d="m79.942 46.602a0.17857 0.17857 0 1 1 -0.35714 0 0.17857 0.17857 0 1 1 0.35714 0z" fill="#666" stroke="#000" stroke-width=".5"/>
 <path d="m81.457 46.602a0.17857 0.17857 0 1 1 -0.35714 0 0.17857 0.17857 0 1 1 0.35714 0z" fill="#666" stroke="#000" stroke-width=".5"/>
 <path d="m82.967 46.602a0.17857 0.17857 0 1 1 -0.35714 0 0.17857 0.17857 0 1 1 0.35714 0z" fill="#666" stroke="#000" stroke-width=".5"/>
 <path d="m85.954 46.602a0.17857 0.17857 0 1 1 -0.35714 0 0.17857 0.17857 0 1 1 0.35714 0z" fill="#666" stroke="#000" stroke-width=".5"/>
 <path d="m84.465 46.602a0.17857 0.17857 0 1 1 -0.35714 0 0.17857 0.17857 0 1 1 0.35714 0z" fill="#666" stroke="#000" stroke-width=".5"/>
 <path d="m88.924 46.602a0.17857 0.17857 0 1 1 -0.35714 0 0.17857 0.17857 0 1 1 0.35714 0z" fill="#666" stroke="#000" stroke-width=".5"/>
 <path d="m87.439 46.602a0.17857 0.17857 0 1 1 -0.35714 0 0.17857 0.17857 0 1 1 0.35714 0z" fill="#666" stroke="#000" stroke-width=".5"/>
 <path d="m72.367 48.346a0.17857 0.17857 0 1 1 -0.35714 0 0.17857 0.17857 0 1 1 0.35714 0z" fill="#666" stroke="#000" stroke-width=".5"/>
 <path d="m73.874 48.346a0.17857 0.17857 0 1 1 -0.35714 0 0.17857 0.17857 0 1 1 0.35714 0z" fill="#666" stroke="#000" stroke-width=".5"/>
 <path d="m75.386 48.346a0.17857 0.17857 0 1 1 -0.35714 0 0.17857 0.17857 0 1 1 0.35714 0z" fill="#666" stroke="#000" stroke-width=".5"/>
 <path d="m78.422 48.346a0.17857 0.17857 0 1 1 -0.35714 0 0.17857 0.17857 0 1 1 0.35714 0z" fill="#666" stroke="#000" stroke-width=".5"/>
 <path d="m76.903 48.346a0.17857 0.17857 0 1 1 -0.35714 0 0.17857 0.17857 0 1 1 0.35714 0z" fill="#666" stroke="#000" stroke-width=".5"/>
 <path d="m79.942 48.346a0.17857 0.17857 0 1 1 -0.35714 0 0.17857 0.17857 0 1 1 0.35714 0z" fill="#666" stroke="#000" stroke-width=".5"/>
 <path d="m81.457 48.346a0.17857 0.17857 0 1 1 -0.35714 0 0.17857 0.17857 0 1 1 0.35714 0z" fill="#666" stroke="#000" stroke-width=".5"/>
 <path d="m82.967 48.346a0.17857 0.17857 0 1 1 -0.35714 0 0.17857 0.17857 0 1 1 0.35714 0z" fill="#666" stroke="#000" stroke-width=".5"/>
 <path d="m85.954 48.346a0.17857 0.17857 0 1 1 -0.35714 0 0.17857 0.17857 0 1 1 0.35714 0z" fill="#666" stroke="#000" stroke-width=".5"/>
 <path d="m84.465 48.346a0.17857 0.17857 0 1 1 -0.35714 0 0.17857 0.17857 0 1 1 0.35714 0z" fill="#666" stroke="#000" stroke-width=".5"/>
 <path d="m88.924 48.346a0.17857 0.17857 0 1 1 -0.35714 0 0.17857 0.17857 0 1 1 0.35714 0z" fill="#666" stroke="#000" stroke-width=".5"/>
 <path d="m87.439 48.346a0.17857 0.17857 0 1 1 -0.35714 0 0.17857 0.17857 0 1 1 0.35714 0z" fill="#666" stroke="#000" stroke-width=".5"/>
 <path d="m72.367 50.065a0.17857 0.17857 0 1 1 -0.35714 0 0.17857 0.17857 0 1 1 0.35714 0z" fill="#666" stroke="#000" stroke-width=".5"/>
 <path d="m73.874 50.065a0.17857 0.17857 0 1 1 -0.35714 0 0.17857 0.17857 0 1 1 0.35714 0z" fill="#666" stroke="#000" stroke-width=".5"/>
 <path d="m75.386 50.065a0.17857 0.17857 0 1 1 -0.35714 0 0.17857 0.17857 0 1 1 0.35714 0z" fill="#666" stroke="#000" stroke-width=".5"/>
 <path d="m78.422 50.065a0.17857 0.17857 0 1 1 -0.35714 0 0.17857 0.17857 0 1 1 0.35714 0z" fill="#666" stroke="#000" stroke-width=".5"/>
 <path d="m76.903 50.065a0.17857 0.17857 0 1 1 -0.35714 0 0.17857 0.17857 0 1 1 0.35714 0z" fill="#666" stroke="#000" stroke-width=".5"/>
 <path d="m79.942 50.065a0.17857 0.17857 0 1 1 -0.35714 0 0.17857 0.17857 0 1 1 0.35714 0z" fill="#666" stroke="#000" stroke-width=".5"/>
 <path d="m81.457 50.065a0.17857 0.17857 0 1 1 -0.35714 0 0.17857 0.17857 0 1 1 0.35714 0z" fill="#666" stroke="#000" stroke-width=".5"/>
 <path d="m82.967 50.065a0.17857 0.17857 0 1 1 -0.35714 0 0.17857 0.17857 0 1 1 0.35714 0z" fill="#666" stroke="#000" stroke-width=".5"/>
 <path d="m85.954 50.065a0.17857 0.17857 0 1 1 -0.35714 0 0.17857 0.17857 0 1 1 0.35714 0z" fill="#666" stroke="#000" stroke-width=".5"/>
 <path d="m84.465 50.065a0.17857 0.17857 0 1 1 -0.35714 0 0.17857 0.17857 0 1 1 0.35714 0z" fill="#666" stroke="#000" stroke-width=".5"/>
 <path d="m88.924 50.065a0.17857 0.17857 0 1 1 -0.35714 0 0.17857 0.17857 0 1 1 0.35714 0z" fill="#666" stroke="#000" stroke-width=".5"/>
 <path d="m87.439 50.065a0.17857 0.17857 0 1 1 -0.35714 0 0.17857 0.17857 0 1 1 0.35714 0z" fill="#666" stroke="#000" stroke-width=".5"/>
 <path d="m72.367 51.766a0.17857 0.17857 0 1 1 -0.35714 0 0.17857 0.17857 0 1 1 0.35714 0z" fill="#666" stroke="#000" stroke-width=".5"/>
 <path d="m73.874 51.766a0.17857 0.17857 0 1 1 -0.35714 0 0.17857 0.17857 0 1 1 0.35714 0z" fill="#666" stroke="#000" stroke-width=".5"/>
 <path d="m75.386 51.766a0.17857 0.17857 0 1 1 -0.35714 0 0.17857 0.17857 0 1 1 0.35714 0z" fill="#666" stroke="#000" stroke-width=".5"/>
 <path d="m78.422 51.766a0.17857 0.17857 0 1 1 -0.35714 0 0.17857 0.17857 0 1 1 0.35714 0z" fill="#666" stroke="#000" stroke-width=".5"/>
 <path d="m76.903 51.766a0.17857 0.17857 0 1 1 -0.35714 0 0.17857 0.17857 0 1 1 0.35714 0z" fill="#666" stroke="#000" stroke-width=".5"/>
 <path d="m79.942 51.766a0.17857 0.17857 0 1 1 -0.35714 0 0.17857 0.17857 0 1 1 0.35714 0z" fill="#666" stroke="#000" stroke-width=".5"/>
 <path d="m81.457 51.766a0.17857 0.17857 0 1 1 -0.35714 0 0.17857 0.17857 0 1 1 0.35714 0z" fill="#666" stroke="#000" stroke-width=".5"/>
 <path d="m82.967 51.766a0.17857 0.17857 0 1 1 -0.35714 0 0.17857 0.17857 0 1 1 0.35714 0z" fill="#666" stroke="#000" stroke-width=".5"/>
 <path d="m85.954 51.766a0.17857 0.17857 0 1 1 -0.35714 0 0.17857 0.17857 0 1 1 0.35714 0z" fill="#666" stroke="#000" stroke-width=".5"/>
 <path d="m84.465 51.766a0.17857 0.17857 0 1 1 -0.35714 0 0.17857 0.17857 0 1 1 0.35714 0z" fill="#666" stroke="#000" stroke-width=".5"/>
 <path d="m88.924 51.766a0.17857 0.17857 0 1 1 -0.35714 0 0.17857 0.17857 0 1 1 0.35714 0z" fill="#666" stroke="#000" stroke-width=".5"/>
 <path d="m87.439 51.766a0.17857 0.17857 0 1 1 -0.35714 0 0.17857 0.17857 0 1 1 0.35714 0z" fill="#666" stroke="#000" stroke-width=".5"/>
 <path d="m73.188 43.962a0.17857 0.17857 0 1 1 -0.35714 0 0.17857 0.17857 0 1 1 0.35714 0z" fill="#666" stroke="#000" stroke-width=".5"/>
 <path d="m74.695 43.962a0.17857 0.17857 0 1 1 -0.35714 0 0.17857 0.17857 0 1 1 0.35714 0z" fill="#666" stroke="#000" stroke-width=".5"/>
 <path d="m76.206 43.962a0.17857 0.17857 0 1 1 -0.35714 0 0.17857 0.17857 0 1 1 0.35714 0z" fill="#666" stroke="#000" stroke-width=".5"/>
 <path d="m79.243 43.962a0.17857 0.17857 0 1 1 -0.35714 0 0.17857 0.17857 0 1 1 0.35714 0z" fill="#666" stroke="#000" stroke-width=".5"/>
 <path d="m77.723 43.962a0.17857 0.17857 0 1 1 -0.35714 0 0.17857 0.17857 0 1 1 0.35714 0z" fill="#666" stroke="#000" stroke-width=".5"/>
 <path d="m80.762 43.962a0.17857 0.17857 0 1 1 -0.35714 0 0.17857 0.17857 0 1 1 0.35714 0z" fill="#666" stroke="#000" stroke-width=".5"/>
 <path d="m82.278 43.962a0.17857 0.17857 0 1 1 -0.35714 0 0.17857 0.17857 0 1 1 0.35714 0z" fill="#666" stroke="#000" stroke-width=".5"/>
 <path d="m83.788 43.962a0.17857 0.17857 0 1 1 -0.35714 0 0.17857 0.17857 0 1 1 0.35714 0z" fill="#666" stroke="#000" stroke-width=".5"/>
 <path d="m86.774 43.962a0.17857 0.17857 0 1 1 -0.35714 0 0.17857 0.17857 0 1 1 0.35714 0z" fill="#666" stroke="#000" stroke-width=".5"/>
 <path d="m85.286 43.962a0.17857 0.17857 0 1 1 -0.35714 0 0.17857 0.17857 0 1 1 0.35714 0z" fill="#666" stroke="#000" stroke-width=".5"/>
 <path d="m89.745 43.962a0.17857 0.17857 0 1 1 -0.35714 0 0.17857 0.17857 0 1 1 0.35714 0z" fill="#666" stroke="#000" stroke-width=".5"/>
 <path d="m88.26 43.962a0.17857 0.17857 0 1 1 -0.35714 0 0.17857 0.17857 0 1 1 0.35714 0z" fill="#666" stroke="#000" stroke-width=".5"/>
 <path d="m73.188 45.75a0.17857 0.17857 0 1 1 -0.35714 0 0.17857 0.17857 0 1 1 0.35714 0z" fill="#666" stroke="#000" stroke-width=".5"/>
 <path d="m74.695 45.75a0.17857 0.17857 0 1 1 -0.35714 0 0.17857 0.17857 0 1 1 0.35714 0z" fill="#666" stroke="#000" stroke-width=".5"/>
 <path d="m76.206 45.75a0.17857 0.17857 0 1 1 -0.35714 0 0.17857 0.17857 0 1 1 0.35714 0z" fill="#666" stroke="#000" stroke-width=".5"/>
 <path d="m79.243 45.75a0.17857 0.17857 0 1 1 -0.35714 0 0.17857 0.17857 0 1 1 0.35714 0z" fill="#666" stroke="#000" stroke-width=".5"/>
 <path d="m77.723 45.75a0.17857 0.17857 0 1 1 -0.35714 0 0.17857 0.17857 0 1 1 0.35714 0z" fill="#666" stroke="#000" stroke-width=".5"/>
 <path d="m80.762 45.75a0.17857 0.17857 0 1 1 -0.35714 0 0.17857 0.17857 0 1 1 0.35714 0z" fill="#666" stroke="#000" stroke-width=".5"/>
 <path d="m82.278 45.75a0.17857 0.17857 0 1 1 -0.35714 0 0.17857 0.17857 0 1 1 0.35714 0z" fill="#666" stroke="#000" stroke-width=".5"/>
 <path d="m83.788 45.75a0.17857 0.17857 0 1 1 -0.35714 0 0.17857 0.17857 0 1 1 0.35714 0z" fill="#666" stroke="#000" stroke-width=".5"/>
 <path d="m86.774 45.75a0.17857 0.17857 0 1 1 -0.35714 0 0.17857 0.17857 0 1 1 0.35714 0z" fill="#666" stroke="#000" stroke-width=".5"/>
 <path d="m85.286 45.75a0.17857 0.17857 0 1 1 -0.35714 0 0.17857 0.17857 0 1 1 0.35714 0z" fill="#666" stroke="#000" stroke-width=".5"/>
 <path d="m89.745 45.75a0.17857 0.17857 0 1 1 -0.35714 0 0.17857 0.17857 0 1 1 0.35714 0z" fill="#666" stroke="#000" stroke-width=".5"/>
 <path d="m88.26 45.75a0.17857 0.17857 0 1 1 -0.35714 0 0.17857 0.17857 0 1 1 0.35714 0z" fill="#666" stroke="#000" stroke-width=".5"/>
 <path d="m73.188 47.518a0.17857 0.17857 0 1 1 -0.35714 0 0.17857 0.17857 0 1 1 0.35714 0z" fill="#666" stroke="#000" stroke-width=".5"/>
 <path d="m74.695 47.518a0.17857 0.17857 0 1 1 -0.35714 0 0.17857 0.17857 0 1 1 0.35714 0z" fill="#666" stroke="#000" stroke-width=".5"/>
 <path d="m76.206 47.518a0.17857 0.17857 0 1 1 -0.35714 0 0.17857 0.17857 0 1 1 0.35714 0z" fill="#666" stroke="#000" stroke-width=".5"/>
 <path d="m79.243 47.518a0.17857 0.17857 0 1 1 -0.35714 0 0.17857 0.17857 0 1 1 0.35714 0z" fill="#666" stroke="#000" stroke-width=".5"/>
 <path d="m77.723 47.518a0.17857 0.17857 0 1 1 -0.35714 0 0.17857 0.17857 0 1 1 0.35714 0z" fill="#666" stroke="#000" stroke-width=".5"/>
 <path d="m80.762 47.518a0.17857 0.17857 0 1 1 -0.35714 0 0.17857 0.17857 0 1 1 0.35714 0z" fill="#666" stroke="#000" stroke-width=".5"/>
 <path d="m82.278 47.518a0.17857 0.17857 0 1 1 -0.35714 0 0.17857 0.17857 0 1 1 0.35714 0z" fill="#666" stroke="#000" stroke-width=".5"/>
 <path d="m83.788 47.518a0.17857 0.17857 0 1 1 -0.35714 0 0.17857 0.17857 0 1 1 0.35714 0z" fill="#666" stroke="#000" stroke-width=".5"/>
 <path d="m86.774 47.518a0.17857 0.17857 0 1 1 -0.35714 0 0.17857 0.17857 0 1 1 0.35714 0z" fill="#666" stroke="#000" stroke-width=".5"/>
 <path d="m85.286 47.518a0.17857 0.17857 0 1 1 -0.35714 0 0.17857 0.17857 0 1 1 0.35714 0z" fill="#666" stroke="#000" stroke-width=".5"/>
 <path d="m89.745 47.518a0.17857 0.17857 0 1 1 -0.35714 0 0.17857 0.17857 0 1 1 0.35714 0z" fill="#666" stroke="#000" stroke-width=".5"/>
 <path d="m88.26 47.518a0.17857 0.17857 0 1 1 -0.35714 0 0.17857 0.17857 0 1 1 0.35714 0z" fill="#666" stroke="#000" stroke-width=".5"/>
 <path d="m73.188 49.262a0.17857 0.17857 0 1 1 -0.35714 0 0.17857 0.17857 0 1 1 0.35714 0z" fill="#666" stroke="#000" stroke-width=".5"/>
 <path d="m74.695 49.262a0.17857 0.17857 0 1 1 -0.35714 0 0.17857 0.17857 0 1 1 0.35714 0z" fill="#666" stroke="#000" stroke-width=".5"/>
 <path d="m76.206 49.262a0.17857 0.17857 0 1 1 -0.35714 0 0.17857 0.17857 0 1 1 0.35714 0z" fill="#666" stroke="#000" stroke-width=".5"/>
 <path d="m79.243 49.262a0.17857 0.17857 0 1 1 -0.35714 0 0.17857 0.17857 0 1 1 0.35714 0z" fill="#666" stroke="#000" stroke-width=".5"/>
 <path d="m77.723 49.262a0.17857 0.17857 0 1 1 -0.35714 0 0.17857 0.17857 0 1 1 0.35714 0z" fill="#666" stroke="#000" stroke-width=".5"/>
 <path d="m80.762 49.262a0.17857 0.17857 0 1 1 -0.35714 0 0.17857 0.17857 0 1 1 0.35714 0z" fill="#666" stroke="#000" stroke-width=".5"/>
 <path d="m82.278 49.262a0.17857 0.17857 0 1 1 -0.35714 0 0.17857 0.17857 0 1 1 0.35714 0z" fill="#666" stroke="#000" stroke-width=".5"/>
 <path d="m83.788 49.262a0.17857 0.17857 0 1 1 -0.35714 0 0.17857 0.17857 0 1 1 0.35714 0z" fill="#666" stroke="#000" stroke-width=".5"/>
 <path d="m86.774 49.262a0.17857 0.17857 0 1 1 -0.35714 0 0.17857 0.17857 0 1 1 0.35714 0z" fill="#666" stroke="#000" stroke-width=".5"/>
 <path d="m85.286 49.262a0.17857 0.17857 0 1 1 -0.35714 0 0.17857 0.17857 0 1 1 0.35714 0z" fill="#666" stroke="#000" stroke-width=".5"/>
 <path d="m89.745 49.262a0.17857 0.17857 0 1 1 -0.35714 0 0.17857 0.17857 0 1 1 0.35714 0z" fill="#666" stroke="#000" stroke-width=".5"/>
 <path d="m88.26 49.262a0.17857 0.17857 0 1 1 -0.35714 0 0.17857 0.17857 0 1 1 0.35714 0z" fill="#666" stroke="#000" stroke-width=".5"/>
 <path d="m73.188 50.981a0.17857 0.17857 0 1 1 -0.35714 0 0.17857 0.17857 0 1 1 0.35714 0z" fill="#666" stroke="#000" stroke-width=".5"/>
 <path d="m74.695 50.981a0.17857 0.17857 0 1 1 -0.35714 0 0.17857 0.17857 0 1 1 0.35714 0z" fill="#666" stroke="#000" stroke-width=".5"/>
 <path d="m76.206 50.981a0.17857 0.17857 0 1 1 -0.35714 0 0.17857 0.17857 0 1 1 0.35714 0z" fill="#666" stroke="#000" stroke-width=".5"/>
 <path d="m79.243 50.981a0.17857 0.17857 0 1 1 -0.35714 0 0.17857 0.17857 0 1 1 0.35714 0z" fill="#666" stroke="#000" stroke-width=".5"/>
 <path d="m77.723 50.981a0.17857 0.17857 0 1 1 -0.35714 0 0.17857 0.17857 0 1 1 0.35714 0z" fill="#666" stroke="#000" stroke-width=".5"/>
 <path d="m80.762 50.981a0.17857 0.17857 0 1 1 -0.35714 0 0.17857 0.17857 0 1 1 0.35714 0z" fill="#666" stroke="#000" stroke-width=".5"/>
 <path d="m82.278 50.981a0.17857 0.17857 0 1 1 -0.35714 0 0.17857 0.17857 0 1 1 0.35714 0z" fill="#666" stroke="#000" stroke-width=".5"/>
 <path d="m83.788 50.981a0.17857 0.17857 0 1 1 -0.35714 0 0.17857 0.17857 0 1 1 0.35714 0z" fill="#666" stroke="#000" stroke-width=".5"/>
 <path d="m86.774 50.981a0.17857 0.17857 0 1 1 -0.35714 0 0.17857 0.17857 0 1 1 0.35714 0z" fill="#666" stroke="#000" stroke-width=".5"/>
 <path d="m85.286 50.981a0.17857 0.17857 0 1 1 -0.35714 0 0.17857 0.17857 0 1 1 0.35714 0z" fill="#666" stroke="#000" stroke-width=".5"/>
 <path d="m89.745 50.981a0.17857 0.17857 0 1 1 -0.35714 0 0.17857 0.17857 0 1 1 0.35714 0z" fill="#666" stroke="#000" stroke-width=".5"/>
 <path d="m88.26 50.981a0.17857 0.17857 0 1 1 -0.35714 0 0.17857 0.17857 0 1 1 0.35714 0z" fill="#666" stroke="#000" stroke-width=".5"/>
 <path d="m73.188 52.682a0.17857 0.17857 0 1 1 -0.35714 0 0.17857 0.17857 0 1 1 0.35714 0z" fill="#666" stroke="#000" stroke-width=".5"/>
 <path d="m74.695 52.682a0.17857 0.17857 0 1 1 -0.35714 0 0.17857 0.17857 0 1 1 0.35714 0z" fill="#666" stroke="#000" stroke-width=".5"/>
 <path d="m76.206 52.682a0.17857 0.17857 0 1 1 -0.35714 0 0.17857 0.17857 0 1 1 0.35714 0z" fill="#666" stroke="#000" stroke-width=".5"/>
 <path d="m79.243 52.682a0.17857 0.17857 0 1 1 -0.35714 0 0.17857 0.17857 0 1 1 0.35714 0z" fill="#666" stroke="#000" stroke-width=".5"/>
 <path d="m77.723 52.682a0.17857 0.17857 0 1 1 -0.35714 0 0.17857 0.17857 0 1 1 0.35714 0z" fill="#666" stroke="#000" stroke-width=".5"/>
 <path d="m80.762 52.682a0.17857 0.17857 0 1 1 -0.35714 0 0.17857 0.17857 0 1 1 0.35714 0z" fill="#666" stroke="#000" stroke-width=".5"/>
 <path d="m82.278 52.682a0.17857 0.17857 0 1 1 -0.35714 0 0.17857 0.17857 0 1 1 0.35714 0z" fill="#666" stroke="#000" stroke-width=".5"/>
 <path d="m83.788 52.682a0.17857 0.17857 0 1 1 -0.35714 0 0.17857 0.17857 0 1 1 0.35714 0z" fill="#666" stroke="#000" stroke-width=".5"/>
 <path d="m86.774 52.682a0.17857 0.17857 0 1 1 -0.35714 0 0.17857 0.17857 0 1 1 0.35714 0z" fill="#666" stroke="#000" stroke-width=".5"/>
 <path d="m85.286 52.682a0.17857 0.17857 0 1 1 -0.35714 0 0.17857 0.17857 0 1 1 0.35714 0z" fill="#666" stroke="#000" stroke-width=".5"/>
 <path d="m89.745 52.682a0.17857 0.17857 0 1 1 -0.35714 0 0.17857 0.17857 0 1 1 0.35714 0z" fill="#666" stroke="#000" stroke-width=".5"/>
 <path d="m88.26 52.682a0.17857 0.17857 0 1 1 -0.35714 0 0.17857 0.17857 0 1 1 0.35714 0z" fill="#666" stroke="#000" stroke-width=".5"/>
 <path d="m135.29 77.66 30.601-15.079 1.9532 2.6225-0.26165 41.633-1.1494 2.7966-30.817 16.216-0.32554-48.189z" fill="#4d4d4d" stroke="#000" stroke-width=".71877"/>
 <path d="m140.32 80.107 24.29-11.786" fill="#4d4d4d" stroke="#000" stroke-width=".75"/>
</svg>
